<svg width="12" height="12" viewBox="0 0 12 12" fill="none" xmlns="http://www.w3.org/2000/svg">
<path d="M7.4458 5.97314L11.8052 10.3325C11.9224 10.4497 11.9224 10.5786 11.8052 10.7192L10.9966 11.5278C10.856 11.645 10.7271 11.645 10.6099 11.5278L9.87158 10.7544L6.25049 7.16846L1.89111 11.5278C1.77393 11.645 1.64502 11.645 1.50439 11.5278L0.695801 10.7192C0.578613 10.5786 0.578613 10.4497 0.695801 10.3325L5.05518 5.97314L0.695801 1.61377C0.578613 1.49658 0.578613 1.36768 0.695801 1.22705L1.50439 0.418457C1.64502 0.30127 1.77393 0.30127 1.89111 0.418457L6.25049 4.77783L10.6099 0.418457C10.7271 0.30127 10.856 0.30127 10.9966 0.418457L11.8052 1.22705C11.9224 1.36768 11.9224 1.49658 11.8052 1.61377L11.0317 2.35205L7.4458 5.97314Z" fill="#115CC4"/>
</svg>
